<?xml version="1.0" encoding="utf-8"?>
<!-- Generator: Adobe Illustrator 17.1.0, SVG Export Plug-In . SVG Version: 6.00 Build 0)  -->
<!DOCTYPE svg PUBLIC "-//W3C//DTD SVG 1.1//EN" "http://www.w3.org/Graphics/SVG/1.1/DTD/svg11.dtd">
<svg version="1.1" id="图层_1" xmlns="http://www.w3.org/2000/svg" xmlns:xlink="http://www.w3.org/1999/xlink" x="0px" y="0px"
	 viewBox="0 0 370.331 60" enable-background="new 0 0 370.331 60" xml:space="preserve">
<g>
	<path fill="#FFFFFF" d="M59.848,32.221l-1.082,5.872l-1.452,0.299l-0.933,2.876l0.82,1.072l-2.885,5.162l-1.475-0.179l-1.791,2.422
		l0.391,1.179l-4.612,3.811l-1.303-0.69l-2.554,1.604l-0.072,1.342v0.011l-5.509,2.1l-1.026-1.081l-2.937,0.7l-0.489,1.264V60
		l-5.993-0.079l-0.542-1.383l-2.996-0.431l-0.922,0.979l-5.56-1.96l-0.071-1.485l-2.697-1.361l-1.104,0.581l-4.53-3.902L9,49.558
		l-2.016-2.254L5.64,47.46l-3.006-5.08l0.89-1.181l-1.19-2.775l-1.312-0.28l-0.031-0.024L0,32.198l1.262-0.78l-0.11-3.017
		l-1.121-0.74l0.933-5.822l1.45-0.341l0.864-2.89l-0.843-1.06H2.423l3.056-5.175l1.475,0.225l1.854-2.383l-0.39-1.284l4.481-3.857
		l1.32,0.678l2.526-1.662l0.043-1.243l5.631-1.995l0.993,1.099l2.946-0.629l0.531-1.231L32.79,0l0.58,1.372l2.996,0.341l0.904-1.004
		l0.009-0.008l5.593,2.133l0.029,1.485l2.667,1.432l1.201-0.6l4.55,3.757l-0.441,1.422l2.054,2.205l1.233-0.17l2.919,5.223
		l-0.923,1.161l1.121,2.794l1.315,0.316l1.071,5.81l-1.252,0.799l0.169,3.019l1.145,0.711L59.848,32.221z M29.916,2.769
		c-15.044,0-27.243,12.197-27.243,27.243c0,15.05,12.199,27.251,27.243,27.251c15.051,0,27.251-12.201,27.251-27.251
		C57.166,14.966,44.967,2.769,29.916,2.769"/>
	<path fill="#FFFFFF" d="M56.509,30.013c0,14.684-11.905,26.587-26.593,26.587c-14.681,0-26.584-11.903-26.584-26.587
		c0-14.682,11.904-26.585,26.584-26.585C44.604,3.428,56.509,15.331,56.509,30.013 M29.916,3.679
		c-14.54,0-26.333,11.792-26.333,26.334c0,14.547,11.792,26.337,26.333,26.337c14.547,0,26.341-11.79,26.341-26.337
		C56.256,15.471,44.463,3.679,29.916,3.679 M55.643,30.013c0,14.209-11.516,25.727-25.728,25.727
		c-14.204,0-25.722-11.517-25.722-25.727c0-14.204,11.518-25.723,25.722-25.723C44.127,4.289,55.643,15.809,55.643,30.013
		 M29.92,4.533c-14.073,0-25.483,11.41-25.483,25.48c0,14.073,11.41,25.482,25.483,25.482c14.072,0,25.481-11.409,25.481-25.482
		C55.401,15.943,43.992,4.533,29.92,4.533 M54.816,30.013c0,13.75-11.146,24.902-24.901,24.902
		c-13.748,0-24.895-11.152-24.895-24.902c0-13.746,11.147-24.896,24.895-24.896C43.67,5.117,54.816,16.267,54.816,30.013
		 M29.92,5.351c-13.621,0-24.664,11.043-24.664,24.661c0,13.623,11.043,24.662,24.664,24.662c13.619,0,24.662-11.039,24.662-24.662
		C54.582,16.394,43.539,5.351,29.92,5.351"/>
	<path fill="#FFFFFF" d="M14.623,36.714c-0.135-0.333-0.341-0.881-0.546-1.576c-0.227-0.779-0.413-1.581-0.545-2.379
		c-0.164-1.006-0.247-2.009-0.247-2.985c0-0.68,0.042-1.353,0.12-2.008c0.086-0.717,0.22-1.422,0.399-2.113
		c0.197-0.737,0.451-1.465,0.753-2.163c0.325-0.751,0.717-1.483,1.165-2.181c0.301-0.466,0.624-0.924,0.959-1.356
		c0.323-0.412,0.666-0.816,1.021-1.196c0.657-0.706,1.376-1.365,2.141-1.946c1.286-0.986,2.717-1.794,4.253-2.406
		c0.604-0.243,1.222-0.451,1.845-0.624c0.496-0.137,0.995-0.254,1.482-0.342c0.709-0.128,1.183-0.163,1.307-0.177
		c-0.009,0.123-0.059,0.57-0.158,1.24c-0.11,0.73-0.304,1.881-0.612,3.235c-0.343,1.521-0.757,2.975-1.23,4.329
		c-0.587,1.688-1.264,3.218-2.02,4.552c-0.752,1.33-1.74,2.718-2.935,4.124c-0.956,1.125-2.048,2.266-3.244,3.392
		c-1.877,1.765-3.4,2.919-3.677,3.117C14.819,37.18,14.737,36.996,14.623,36.714 M14.567,34.382
		c0.252,0.945,0.507,1.583,0.593,1.787c0.139-0.105,0.482-0.379,0.961-0.784c0.576-0.486,1.467-1.262,2.452-2.211
		c1.107-1.071,2.108-2.132,2.967-3.161c1.072-1.285,1.93-2.526,2.556-3.678c0,0,0.002,0,0.002-0.003
		c0.697-1.23,1.332-2.655,1.886-4.229c0.444-1.259,0.837-2.62,1.166-4.036c0.295-1.261,0.487-2.339,0.594-3.021
		c0.092-0.562,0.14-0.955,0.157-1.116c-0.161,0.029-0.583,0.103-1.178,0.255c-0.453,0.123-0.919,0.26-1.378,0.417
		c-0.576,0.203-1.15,0.434-1.708,0.688c-1.413,0.652-2.718,1.456-3.882,2.405c-0.69,0.559-1.334,1.176-1.919,1.835
		c-0.64,0.716-1.223,1.501-1.73,2.329c-0.4,0.651-0.748,1.332-1.037,2.03c-0.268,0.647-0.493,1.324-0.663,2.015
		c-0.16,0.631-0.278,1.296-0.352,1.953c-0.071,0.606-0.107,1.23-0.107,1.854c0,0.856,0.065,1.729,0.194,2.599
		C14.241,33.008,14.386,33.703,14.567,34.382 M44.04,36.517c-0.576-0.457-1.476-1.202-2.497-2.147
		c-1.143-1.054-2.197-2.141-3.132-3.228c-1.171-1.354-2.156-2.709-2.93-4.024c-0.78-1.314-1.487-2.866-2.108-4.605
		c-0.496-1.391-0.938-2.905-1.314-4.501c-0.336-1.424-0.554-2.649-0.677-3.427c-0.115-0.713-0.174-1.192-0.187-1.322
		c0.14,0.013,0.681,0.063,1.473,0.22c0.539,0.105,1.088,0.239,1.632,0.4c0.679,0.196,1.351,0.431,1.994,0.698
		c1.644,0.678,3.127,1.56,4.412,2.618c0.765,0.631,1.468,1.334,2.084,2.083c0.33,0.405,0.648,0.83,0.935,1.267
		c0.302,0.458,0.586,0.944,0.841,1.435c0.362,0.702,0.682,1.43,0.945,2.161c0.247,0.681,0.453,1.383,0.613,2.086
		c0.147,0.653,0.258,1.32,0.331,1.987c0.063,0.612,0.098,1.24,0.098,1.863c0,0.975-0.081,1.956-0.242,2.927
		c-0.128,0.777-0.304,1.542-0.529,2.282c-0.199,0.659-0.395,1.172-0.528,1.487c-0.11,0.259-0.192,0.431-0.225,0.493
		C44.93,37.204,44.572,36.942,44.04,36.517 M43.984,35.531c0.442,0.357,0.758,0.596,0.887,0.688c0.074-0.195,0.29-0.787,0.504-1.668
		c0.156-0.635,0.277-1.295,0.368-1.961c0.109-0.828,0.165-1.666,0.165-2.49c0-1.317-0.145-2.613-0.425-3.857
		c-0.16-0.706-0.368-1.403-0.618-2.077c-0.266-0.726-0.591-1.44-0.961-2.123c-0.236-0.433-0.497-0.86-0.773-1.265
		c-0.267-0.388-0.554-0.768-0.854-1.129c-0.563-0.669-1.194-1.297-1.883-1.867c-1.152-0.957-2.481-1.767-3.936-2.406
		c-0.576-0.252-1.172-0.48-1.774-0.672c-0.483-0.152-0.968-0.286-1.447-0.395c-0.634-0.149-1.084-0.217-1.256-0.237
		c0.025,0.164,0.092,0.605,0.203,1.223c0.131,0.738,0.356,1.902,0.686,3.228c0.372,1.493,0.792,2.888,1.257,4.152
		c0.575,1.566,1.216,2.932,1.901,4.049c0.721,1.224,1.638,2.482,2.725,3.751c0.87,1.012,1.849,2.032,2.914,3.033
		C42.609,34.394,43.449,35.095,43.984,35.531 M43.663,39.487c0,0-5.149,7.692-14.29,7.26c-9.138-0.43-13.51-7.283-13.51-7.283
		s6.907-3.153,13.615-3.213C36.187,36.193,43.663,39.487,43.663,39.487 M29.662,46.113c0.128,0.004,0.261,0.004,0.394,0.004
		c0.937,0,1.88-0.09,2.8-0.274c0.833-0.165,1.669-0.41,2.482-0.722c1.363-0.534,2.684-1.276,3.93-2.203
		c0.491-0.364,0.967-0.761,1.423-1.177c0.362-0.333,0.709-0.674,1.034-1.024c0.425-0.461,0.7-0.807,0.8-0.94
		c-0.15-0.061-0.539-0.215-1.1-0.419c-0.674-0.244-1.743-0.616-3.003-0.98c-1.418-0.417-2.785-0.75-4.067-0.982
		c-1.601-0.297-3.069-0.449-4.361-0.449c-0.15,0-0.303,0.004-0.451,0.007c-1.42,0.018-2.971,0.178-4.609,0.488
		c-1.312,0.242-2.687,0.58-4.08,1.003c-1.239,0.377-2.268,0.75-2.914,0.996c-0.531,0.204-0.893,0.362-1.041,0.422
		c0.106,0.124,0.38,0.452,0.812,0.892c0.326,0.332,0.681,0.665,1.05,0.983c0.463,0.4,0.947,0.784,1.449,1.137
		c1.267,0.902,2.621,1.627,4.022,2.161c0.83,0.312,1.686,0.565,2.547,0.745C27.723,45.975,28.693,46.089,29.662,46.113
		 M29.706,27.155l-2.707,4.603h5.862l-2.485-3.637l-0.331,0.584l1.628,2.402h-3.508l2.027-3.311L29.706,27.155z"/>
	<path fill="#FFFFFF" d="M10.62,29.858c-0.106-0.213-0.39-0.637-0.537-0.817c0.166,0.015,0.318-0.032,0.425-0.114
		c0.455,0.733,0.695,1.109,0.885,1.299c-0.196,0.093-0.355,0.215-0.48,0.319c-0.152-0.168-0.361-0.229-0.892-0.256L8.93,30.234
		c-0.025,0.618-0.03,0.922-0.016,1.12L8.44,31.33c0.034-0.195,0.06-0.504,0.094-1.115l-0.929-0.049
		c-0.483-0.022-0.879-0.039-1.045-0.032c0.042-0.171,0.071-0.449,0.064-0.521c-0.012-0.087,0.034-0.122,0.111-0.067
		c0.104,0.082,0.247,0.13,0.428,0.138l1.394,0.07l0.083-1.607c0.044-0.864,0.053-1.267,0.039-1.518l0.469,0.023
		c-0.038,0.235-0.071,0.663-0.115,1.519l-0.02,0.414c0.95-0.247,1.51-1.174,1.656-1.902c0.102,0.184,0.285,0.317,0.521,0.399
		c-0.483,0.993-1.075,1.616-2.198,1.904l-0.039,0.787L10.62,29.858z M7.075,27.155c0.06,0.126,0.157,0.279,0.367,0.487
		c0.184,0.184,0.67,0.752,0.925,1.121c-0.084,0.067-0.226,0.228-0.31,0.388c-0.352-0.674-0.973-1.289-1.402-1.517
		c0.096-0.117,0.231-0.338,0.317-0.516C6.997,27.059,7.032,27.061,7.075,27.155"/>
	<path fill="#FFFFFF" d="M7.888,24.775l-0.381-0.126c0.165-0.391,0.352-0.917,0.591-1.618c-0.228-0.102-0.421-0.173-0.509-0.175
		c0.101-0.132,0.23-0.465,0.256-0.561c0.013-0.077,0.065-0.088,0.133,0.051c0.026,0.044,0.13,0.148,0.261,0.255
		c0.246-0.741,0.409-1.307,0.517-1.737l0.38,0.126c-0.177,0.419-0.386,0.995-0.641,1.771c0.128,0.079,0.247,0.158,0.36,0.24
		l0.125-0.37c0.167-0.512,0.301-0.953,0.385-1.347l0.395,0.128c-0.163,0.364-0.325,0.807-0.492,1.317l-0.157,0.469
		c0.125,0.111,0.241,0.223,0.354,0.346l0.32-0.982c0.183-0.55,0.305-0.961,0.422-1.432l0.389,0.129
		c-0.16,0.375-0.284,0.709-0.429,1.13c0.414-0.135,0.839-0.581,1.066-1.173c0.16,0.175,0.295,0.294,0.451,0.408
		c-0.213,0.262-0.421,0.482-0.617,0.656l0.982,0.324c0.234,0.074,0.46,0.133,0.678,0.173l-0.154,0.462l-0.207-0.07L11.8,24.885
		l0.291,0.094l-0.151,0.455c-0.196-0.098-0.343-0.161-0.582-0.238l-1.115-0.365c0.113,0.285,0.211,0.603,0.3,0.957
		c-0.157,0.026-0.351,0.121-0.481,0.223c-0.083-0.67-0.245-1.253-0.521-1.729c-0.135,0.432-0.233,0.779-0.333,1.184l-0.386-0.129
		c0.191-0.456,0.324-0.828,0.505-1.381c-0.102-0.132-0.215-0.254-0.343-0.364c-0.155,0.475-0.275,0.887-0.355,1.247L8.24,24.711
		c0.16-0.371,0.323-0.798,0.49-1.32c-0.11-0.073-0.237-0.148-0.368-0.222C8.142,23.853,7.987,24.374,7.888,24.775 M10.044,24.393
		c0.087-0.228,0.193-0.555,0.319-0.931c0.111-0.34,0.203-0.64,0.275-0.874c-0.207,0.117-0.406,0.183-0.605,0.207l-0.338,1.028
		C9.825,23.995,9.937,24.188,10.044,24.393 M11.338,22.827l-0.397-0.128l-0.565,1.715l0.395,0.13L11.338,22.827z M11.068,24.642
		l0.422,0.142l0.564-1.718l-0.421-0.137L11.068,24.642z"/>
	<path fill="#FFFFFF" d="M10.733,18.812c-0.25,0.02-0.693,0.141-0.971,0.285l-0.123-0.451c0.297-0.129,0.641-0.247,0.949-0.344
		L10.733,18.812z M11.721,18.709c-0.124,0.041-0.271,0.143-0.38,0.264c-0.223-0.719-0.654-1.388-1.038-1.757
		c0.169-0.102,0.293-0.202,0.434-0.365c0.052-0.054,0.104-0.027,0.087,0.048c-0.018,0.053,0.011,0.179,0.188,0.481l0.768-1.152
		c0.237-0.352,0.344-0.541,0.425-0.714l0.357,0.235c-0.127,0.141-0.261,0.318-0.495,0.663L11.213,17.7
		C11.4,18.004,11.604,18.393,11.721,18.709 M11.597,19.658c-0.363,0.112-0.645,0.252-0.852,0.412l-0.2-0.44
		c0.273-0.168,0.573-0.32,0.853-0.434L11.597,19.658z M12.441,17.353c-0.26,0.392-0.43,0.674-0.541,0.894L11.527,18
		c0.163-0.195,0.354-0.455,0.617-0.846c0.282-0.42,0.433-0.679,0.561-0.917l0.376,0.251C12.901,16.694,12.722,16.933,12.441,17.353
		 M15.182,18.377c-0.473,0.184-1.275-0.11-1.923-0.65l-0.414,0.618c-0.293,0.434-0.527,0.813-0.621,1.015l-0.392-0.263
		c0.152-0.168,0.346-0.422,0.728-0.996c0.326-0.488,0.572-0.901,0.647-1.065c0.528,0.593,1.17,0.946,1.554,0.937
		c0.477-0.011,0.504-0.098-0.095-0.512c0.208-0.033,0.417-0.112,0.545-0.22C15.863,17.937,15.783,18.141,15.182,18.377
		 M12.876,20.498c0.199,0.25,0.392,0.482,0.614,0.72c-0.215,0.084-0.379,0.145-0.558,0.261c-0.103-0.244-0.26-0.49-0.471-0.797
		c-0.176-0.243-0.377-0.487-0.612-0.732c0.165-0.012,0.318-0.079,0.467-0.186C12.433,19.927,12.59,20.138,12.876,20.498"/>
	<path fill="#FFFFFF" d="M15.566,13.522c0.172-0.104,0.296-0.203,0.425-0.32c0.104-0.099,0.145-0.054,0.102,0.059
		c-0.013,0.039,0.04,0.137,0.22,0.34l0.138,0.164c0.625-0.54,0.851-0.759,1.057-0.976l0.297,0.349
		c-0.231,0.166-0.487,0.367-1.113,0.904l0.531,0.617c0.609-0.529,1.048-0.928,1.387-1.258l0.302,0.35
		c-0.374,0.286-0.836,0.662-1.451,1.185c0.389,0.457,0.585,0.669,0.74,0.798l-0.406,0.345c-0.075-0.134-0.292-0.392-0.68-0.846
		c-0.731,0.63-1.235,1.084-1.612,1.449l-0.299-0.349c0.422-0.32,0.944-0.749,1.673-1.376l-0.53-0.62
		c-0.611,0.534-0.997,0.911-1.178,1.138c-0.109-0.09-0.29-0.181-0.437-0.219c0.146-0.224,0.208-0.415,0.017-1.465
		c-0.423,0.364-0.676,0.604-0.919,0.853l-0.31-0.36c0.284-0.204,0.491-0.361,1.141-0.926c-0.071-0.344-0.172-0.63-0.288-0.889
		c0.194-0.055,0.463-0.146,0.572-0.199c0.065-0.032,0.099-0.012,0.06,0.063c-0.03,0.062-0.015,0.368,0.035,0.703l0.999-0.856
		c0.295-0.259,0.561-0.505,0.805-0.757l0.312,0.362c-0.287,0.204-0.574,0.428-0.87,0.683l-1.173,1.011
		c0.076,0.47,0.128,0.919,0.14,1.319l0.854-0.736C15.797,13.7,15.701,13.598,15.566,13.522"/>
	<path fill="#FFFFFF" d="M21.838,12.321c0.842-0.397,1.438-0.7,1.895-0.947l0.224,0.476c-0.523,0.209-1.198,0.509-2.147,0.96
		c-0.949,0.443-1.612,0.776-2.105,1.042l-0.226-0.476c0.479-0.19,1.081-0.461,1.899-0.841l-1.234-2.619
		c-0.658,0.318-1.122,0.554-1.49,0.756l-0.218-0.458c0.435-0.173,0.979-0.409,1.764-0.782c0.785-0.373,1.315-0.638,1.723-0.865
		l0.219,0.46c-0.391,0.155-0.873,0.362-1.539,0.671L21.838,12.321z"/>
	<path fill="#FFFFFF" d="M24.996,10.434c-0.219-0.639-0.604-1.361-0.962-1.789l0.448-0.289c0.281,0.545,0.661,1.221,1.025,1.802
		L24.996,10.434z M25.346,7.916c-0.038-0.247-0.106-0.534-0.167-0.744c0.162,0.002,0.369-0.016,0.549-0.053
		c0.078-0.01,0.1,0.021,0.048,0.083c-0.061,0.068-0.076,0.113-0.061,0.185l0.628,3.666l0.598-0.102l-0.547-3.207
		c-0.039-0.22-0.099-0.487-0.171-0.741c0.158,0.003,0.372-0.019,0.551-0.055c0.079-0.015,0.101,0.02,0.046,0.085
		c-0.059,0.067-0.072,0.114-0.059,0.19l0.624,3.649c0.794-0.134,1.359-0.251,1.576-0.315l0.088,0.504
		c-0.256,0.007-0.806,0.083-2.338,0.346c-1.395,0.239-1.926,0.345-2.231,0.433l-0.087-0.503c0.311-0.024,0.859-0.099,1.502-0.208
		L25.346,7.916z M28.131,8.461c-0.067,0.623-0.152,1.116-0.212,1.423c-0.175-0.063-0.284-0.075-0.474-0.024
		c0.175-0.572,0.247-1.417,0.241-2.184c0.179,0.052,0.438,0.08,0.62,0.064c0.08-0.007,0.088,0.031,0.015,0.093
		C28.263,7.889,28.157,8.207,28.131,8.461"/>
	<path fill="#FFFFFF" d="M32.661,11.191c0.576,0.11,0.618,0.055,0.639-0.149l0.13-1.337l-3.045-0.303L30.19,11.39l-0.479-0.042
		c0.069-0.315,0.097-0.483,0.122-0.742l0.11-1.121c0.013-0.161,0.022-0.374,0.005-0.517c0.419,0.073,1.085,0.16,2.011,0.25
		c1.015,0.103,1.612,0.141,2.013,0.141c-0.046,0.126-0.082,0.341-0.099,0.51l-0.124,1.267c-0.047,0.462-0.097,0.571-0.988,0.548
		C32.819,11.548,32.803,11.418,32.661,11.191 M34.364,7.388l-0.044,0.44c-0.331-0.065-1.062-0.145-2.224-0.251
		c-1.058-0.099-1.8-0.159-2.236-0.17l0.046-0.453c0.405,0.06,1.059,0.143,2.038,0.241c-0.035-0.192-0.087-0.373-0.144-0.475
		l0.666-0.007c-0.012,0.116-0.018,0.324-0.012,0.532C33.445,7.337,34.066,7.388,34.364,7.388 M33.419,9.061
		c-0.428-0.071-0.926-0.121-1.45-0.176c-0.498-0.046-1.001-0.087-1.451-0.098c0.08-0.272,0.129-0.706,0.116-1.059
		c0.422,0.079,0.832,0.13,1.435,0.189c0.513,0.052,1.026,0.082,1.451,0.082C33.445,8.308,33.411,8.688,33.419,9.061 M32.805,11.077
		c-0.323-0.055-0.549-0.08-1.03-0.125c-0.419-0.041-0.766-0.064-1.054-0.07c0.072-0.362,0.109-0.731,0.112-1.11
		C31.098,9.839,31.3,9.86,31.87,9.917c0.458,0.045,0.711,0.063,1.04,0.05C32.844,10.296,32.803,10.676,32.805,11.077 M31.025,8.466
		l1.983,0.195l0.032-0.347l-1.985-0.197L31.025,8.466z M31.189,10.564l1.216,0.122l0.036-0.389l-1.215-0.122L31.189,10.564z"/>
	<path fill="#FFFFFF" d="M36.023,9.587l0.162-0.427c0.34,0.161,0.743,0.333,1.332,0.566c0.056-0.169,0.091-0.284,0.108-0.375
		c0.135,0.083,0.305,0.155,0.479,0.213c0.076,0.031,0.075,0.066-0.012,0.09c-0.054,0.012-0.103,0.067-0.166,0.231
		c0.591,0.22,1.013,0.365,1.365,0.47l-0.165,0.428c-0.33-0.156-0.737-0.338-1.327-0.568l-0.149,0.384
		c0.873,0.338,1.428,0.533,1.925,0.691l-0.162,0.419c-0.278-0.124-0.585-0.258-0.961-0.41l-0.15,0.391
		c0.29,0.105,0.686,0.236,0.788,0.239l-0.167,0.431c-0.087-0.058-0.465-0.21-0.752-0.329l-0.231,0.596
		c-0.153,0.399-0.25,0.442-1.076,0.198c0.052-0.192,0.047-0.332-0.006-0.533c0.528,0.29,0.642,0.255,0.736,0.009l0.166-0.427
		l-1.773-0.685c-0.294-0.111-0.71-0.249-0.861-0.284l0.168-0.44c0.136,0.094,0.528,0.273,0.824,0.38l1.771,0.688l0.154-0.397
		c-1.883-0.725-2.192-0.835-2.845-1.035l0.168-0.436c0.466,0.216,1.011,0.443,1.873,0.773l0.15-0.38
		C36.794,9.833,36.377,9.692,36.023,9.587 M35.958,8.901c-0.041-0.125-0.119-0.231-0.297-0.345c0.333-0.031,1.137-0.492,1.455-0.893
		c0.099,0.114,0.26,0.247,0.385,0.337c0.065,0.042,0.067,0.065-0.019,0.076c-0.075,0.003-0.208,0.07-0.395,0.183l0.282,0.11
		c0.458,0.177,0.661,0.235,0.783,0.243l-0.164,0.428c-0.119-0.075-0.246-0.141-0.558-0.274c-0.037,0.224-0.068,0.454-0.061,0.575
		l-0.482-0.142c0.053-0.124,0.123-0.367,0.169-0.573l-0.332-0.13C36.416,8.684,36.146,8.819,35.958,8.901 M36.003,12.116
		c-0.03-0.252-0.081-0.443-0.184-0.671l0.455-0.067c0.087,0.192,0.15,0.373,0.224,0.651L36.003,12.116z M38.148,9.489
		c-0.107-0.126-0.214-0.232-0.324-0.313c0.303-0.053,0.928-0.616,1.076-0.878c0.094,0.113,0.284,0.246,0.419,0.308
		c0.07,0.035,0.065,0.071-0.022,0.078c-0.071,0-0.182,0.056-0.446,0.248l0.471,0.18c0.598,0.232,0.837,0.259,0.963,0.259
		l-0.177,0.468c-0.128-0.067-0.351-0.175-0.704-0.318c-0.041,0.216-0.06,0.431-0.043,0.592l-0.484-0.098
		c0.059-0.141,0.113-0.386,0.15-0.645l-0.504-0.186C38.382,9.293,38.267,9.386,38.148,9.489"/>
	<path fill="#FFFFFF" d="M42.742,11.789c-0.295-0.215-0.794-0.56-1.008-0.694l0.288-0.379c0.206,0.184,0.745,0.616,1.024,0.822
		c0.32-0.26,0.558-0.475,0.631-0.563c0.074,0.111,0.257,0.338,0.328,0.419c0.099,0.107,0.075,0.129-0.054,0.134
		c-0.066,0.005-0.122,0.031-0.51,0.31l0.738,0.548c0.265,0.196,0.527,0.376,0.78,0.527l-0.284,0.379
		c-0.214-0.201-0.461-0.404-0.724-0.601l-0.831-0.623c-0.153,0.114-0.34,0.252-0.566,0.417l1.168,0.874
		c0.329,0.242,0.663,0.477,0.972,0.682l-0.274,0.365c-0.287-0.243-0.604-0.489-0.933-0.737l-1.264-0.946
		c-0.148,0.107-0.304,0.227-0.482,0.356l1.355,1.014c0.135,0.1,0.393,0.273,0.546,0.344l-0.275,0.368
		c-0.194-0.126-0.375-0.187-0.537-0.185l-1.107,0.032c0.225,0.397,0.388,0.717,0.526,1.021l-0.504,0.156
		c-0.274-0.692-0.672-1.52-1.19-2.298l0.425-0.123c0.193,0.31,0.368,0.596,0.513,0.844l1.146-0.017l-0.956-0.708
		c-0.21-0.158-0.487-0.326-0.584-0.357c0.062-0.136,0.098-0.251,0.12-0.411c0.168,0.002,0.29-0.044,0.646-0.304
		c-0.361-0.256-0.898-0.65-1.156-0.822l0.272-0.365c0.258,0.228,0.858,0.695,1.213,0.949C42.383,12.072,42.563,11.93,42.742,11.789"
		/>
	<path fill="#FFFFFF" d="M43.965,16.369c0.082-0.169,0.11-0.293,0.14-0.458c0.485,0.087,1.237,0.019,1.889-0.172
		c-0.235-0.29-0.405-0.49-0.563-0.646l0.34-0.26c0.12,0.196,0.272,0.415,0.515,0.729l0.634-0.494
		c-0.179-0.152-0.349-0.305-0.463-0.416c0.104-0.113,0.166-0.219,0.209-0.356c0.166,0.187,0.363,0.38,0.641,0.608
		c0.298,0.238,0.564,0.422,0.758,0.525c-0.075,0.104-0.179,0.379-0.183,0.462c-0.002,0.118-0.038,0.125-0.076,0.048
		c-0.08-0.142-0.292-0.369-0.572-0.608l-0.701,0.546c0.2,0.247,0.349,0.422,0.488,0.559l-0.338,0.259
		c-0.096-0.17-0.229-0.356-0.424-0.603l-1.497,1.17c-0.216,0.167-0.482,0.39-0.703,0.599l-0.297-0.387
		c0.268-0.174,0.546-0.371,0.752-0.533l0.987-0.768C44.978,16.312,44.491,16.362,43.965,16.369 M45.66,20.04l-0.317-0.403
		c0.374-0.244,0.587-0.396,1.23-0.899c-0.715-0.686-0.871-0.826-1.108-1.015l0.316-0.322c0.207,0.239,0.358,0.4,1.09,1.106
		l1.534-1.196c0.329-0.255,0.537-0.451,0.669-0.616c0.078,0.153,0.175,0.295,0.297,0.452c0.082,0.106,0.056,0.153-0.057,0.102
		c-0.068-0.029-0.128-0.012-0.18,0.031l-1.951,1.517c0.175,0.169,0.326,0.292,0.503,0.423l-0.325,0.33
		c-0.157-0.184-0.289-0.326-0.484-0.513C46.155,19.6,45.995,19.738,45.66,20.04 M45.594,17.143c0.115-0.237,0.195-0.448,0.247-0.671
		l0.317,0.066c-0.04,0.26-0.089,0.502-0.141,0.715L45.594,17.143z M46.516,17.784c0.125-0.273,0.225-0.527,0.3-0.802l0.369,0.157
		c-0.058,0.251-0.125,0.51-0.228,0.773L46.516,17.784z M47.957,17.275l-0.431-0.164c0.113-0.263,0.215-0.56,0.276-0.812l0.389,0.145
		C48.143,16.68,48.052,17.023,47.957,17.275"/>
	<path fill="#FFFFFF" d="M47.35,20.365l0.469-0.197c0.165,0.498,0.39,1.076,0.75,1.946l0.345-0.146
		c0.243,0.259,0.446,0.444,0.612,0.549l-0.475-1.144c-0.125-0.301-0.229-0.534-0.306-0.694l0.371-0.158
		c0.134,0.397,0.23,0.648,0.509,1.315c0.342,0.822,0.478,1.119,0.575,1.297l-0.446,0.184c-0.06-0.172-0.23-0.362-0.828-0.839
		l-0.173,0.073c0.331,0.785,0.568,1.309,0.784,1.748l-0.47,0.196c-0.156-0.463-0.357-1.002-0.681-1.794l-0.719,0.3
		c-0.299,0.123-0.422,0.048-0.869-0.667c0.149-0.078,0.292-0.203,0.434-0.376c0.173,0.538,0.261,0.596,0.414,0.533l0.558-0.229
		C47.843,21.391,47.582,20.832,47.35,20.365 M51.376,23.514l-0.924,0.385l-0.172-0.413l0.534-0.218l-1.354-3.262l-0.574,0.235
		l-0.17-0.408l0.965-0.401c0.09,0.274,0.232,0.643,0.439,1.138l0.629,1.517c0.423,0.087,1.049,0.147,1.293,0.126
		c-0.042,0.178-0.064,0.408-0.061,0.545c0,0.094-0.027,0.1-0.109,0.023c-0.055-0.045-0.332-0.141-0.957-0.294
		C51.105,22.94,51.252,23.267,51.376,23.514 M50.099,20.213c0.161-0.142,0.383-0.404,0.498-0.558l0.351,0.329
		c-0.128,0.173-0.338,0.421-0.507,0.607L50.099,20.213z M50.667,21.224c0.184-0.106,0.481-0.31,0.632-0.432l0.272,0.396
		c-0.152,0.127-0.39,0.306-0.603,0.452L50.667,21.224z"/>
	<path fill="#FFFFFF" d="M49.178,25.469c0.164-0.086,0.307-0.192,0.422-0.312c0.539,0.289,1.244,0.47,1.922,0.554
		c-0.038-0.269-0.079-0.477-0.117-0.633l0.476-0.059c-0.01,0.172,0,0.38,0.031,0.654c0.586-0.071,0.822-0.109,1.064-0.179
		c-0.013,0.168,0.002,0.399,0.025,0.48c0.021,0.094-0.029,0.125-0.13,0.045c-0.049-0.04-0.064-0.047-0.127-0.04l-0.782,0.093
		c0.03,0.22,0.066,0.384,0.109,0.515l-0.478,0.057c0.006-0.137-0.006-0.306-0.026-0.525l-2.392,0.289
		c-0.281,0.036-0.651,0.091-0.993,0.17l-0.059-0.494c0.349-0.012,0.723-0.04,1.003-0.075l1.457-0.175
		C50.064,25.749,49.616,25.647,49.178,25.469 M50.924,28.576c-0.06,0.164-0.103,0.38-0.105,0.512c-0.003,0.064-0.067,0.059-0.107,0
		c-0.016-0.023-0.138-0.061-0.608-0.195c-0.118-0.034-0.384-0.148-0.595-0.257c-0.188,0.327-0.286,0.868-0.277,1.417
		c-0.179-0.094-0.425-0.17-0.594-0.192c0.076-0.677,0.211-1.016,0.527-1.442c-0.384-0.327-0.718-0.865-0.955-1.436
		c0.151-0.044,0.315-0.152,0.409-0.289c0.174,0.611,0.418,1.039,0.824,1.402c0.292-0.273,0.688-0.513,1.06-0.682l0.181,0.381
		c-0.429,0.183-0.709,0.341-0.922,0.54C50.059,28.477,50.525,28.564,50.924,28.576 M50.028,26.681
		c0.237-0.118,0.469-0.255,0.725-0.419l0.203,0.305c-0.256,0.193-0.486,0.345-0.697,0.479L50.028,26.681z M51.572,27.955
		c-0.022-0.046-0.254-0.222-1.052-0.803c0.089-0.081,0.173-0.192,0.25-0.338c0.272,0.295,0.763,0.6,1.093,0.698
		c-0.102,0.171-0.169,0.326-0.203,0.45C51.646,28.022,51.616,28.03,51.572,27.955 M50.872,29.477
		c0.252-0.283,0.57-0.714,0.773-1.121l0.304,0.247c-0.183,0.42-0.404,0.796-0.62,1.141L50.872,29.477z M52.155,28.174
		c-0.083-0.675-0.158-1.114-0.222-1.392l0.483-0.058c0.002,0.303,0.038,0.717,0.123,1.416c0.064,0.536,0.135,0.992,0.214,1.387
		l-0.478,0.055C52.255,29.139,52.222,28.728,52.155,28.174 M52.558,27.862c0.175-0.059,0.36-0.147,0.558-0.256l0.204,0.503
		c-0.158,0.058-0.349,0.152-0.543,0.27L52.558,27.862z"/>
	<path fill="#FFFFFF" d="M9.013,36.99c-0.075-0.083-0.19-0.275-0.265-0.544c-0.203-0.697,0.109-1.244,0.78-1.441
		c0.721-0.206,1.303,0.169,1.497,0.838c0.078,0.263,0.075,0.464,0.059,0.558l-0.344,0.011c0.014-0.121,0.01-0.278-0.041-0.459
		c-0.132-0.442-0.503-0.682-1.03-0.529c-0.485,0.14-0.708,0.511-0.569,0.992c0.048,0.161,0.13,0.32,0.208,0.417L9.013,36.99z"/>
	<path fill="#FFFFFF" d="M11.294,36.41l0.15,0.39l-0.913,0.353v0.004c0.091,0.021,0.179,0.063,0.249,0.125
		c0.076,0.064,0.137,0.145,0.176,0.243c0.099,0.263,0.032,0.604-0.459,0.796l-0.91,0.352l-0.15-0.388l0.867-0.337
		c0.222-0.087,0.36-0.236,0.278-0.45c-0.059-0.152-0.201-0.219-0.338-0.219c-0.037,0-0.078,0.015-0.123,0.031L9.199,37.67
		l-0.151-0.391L11.294,36.41z"/>
	<path fill="#FFFFFF" d="M10.683,40.048c-0.135,0.061-0.263,0.132-0.345,0.195l-0.165-0.337l0.151-0.105l-0.005-0.014
		c-0.158-0.031-0.316-0.144-0.411-0.344c-0.147-0.298-0.011-0.568,0.213-0.677c0.374-0.181,0.726,0.054,0.99,0.608l0.024-0.012
		c0.099-0.052,0.241-0.167,0.113-0.429c-0.073-0.145-0.192-0.277-0.306-0.349l0.21-0.188c0.122,0.075,0.277,0.234,0.393,0.469
		c0.231,0.476-0.004,0.757-0.33,0.92L10.683,40.048z M10.872,39.498c-0.124-0.263-0.303-0.49-0.528-0.379
		c-0.146,0.069-0.169,0.195-0.112,0.317c0.076,0.148,0.225,0.213,0.351,0.196c0.03-0.009,0.057-0.02,0.085-0.033L10.872,39.498z"/>
	<path fill="#FFFFFF" d="M11.522,40.012c0.167-0.098,0.299-0.184,0.418-0.262l0.185,0.309l-0.203,0.145l0.004,0.011
		c0.149,0,0.376,0.075,0.515,0.311c0.149,0.247,0.137,0.6-0.314,0.865l-0.844,0.499l-0.212-0.359l0.803-0.477
		c0.209-0.116,0.315-0.286,0.2-0.482c-0.085-0.145-0.247-0.181-0.376-0.156c-0.036,0.008-0.082,0.026-0.126,0.046l-0.839,0.498
		l-0.21-0.36L11.522,40.012z"/>
	<path fill="#FFFFFF" d="M12.583,43.324c-0.282,0.204-0.526,0.287-0.755,0.235c-0.221-0.046-0.401-0.215-0.534-0.399
		c-0.121-0.172-0.212-0.383-0.226-0.549l0.308-0.108c0.011,0.121,0.061,0.3,0.179,0.466c0.158,0.219,0.393,0.303,0.685,0.094
		l0.113-0.079v-0.008c-0.175,0.008-0.354-0.071-0.482-0.251c-0.239-0.338-0.133-0.772,0.252-1.041
		c0.442-0.319,0.916-0.221,1.148,0.105c0.148,0.203,0.133,0.395,0.067,0.537l0.006,0.008l0.189-0.115l0.211,0.295
		c-0.094,0.059-0.21,0.133-0.393,0.267L12.583,43.324z M12.953,42.544c0.033-0.023,0.061-0.046,0.085-0.074
		c0.098-0.125,0.123-0.287,0.019-0.431c-0.136-0.193-0.404-0.216-0.676-0.02c-0.23,0.163-0.334,0.411-0.18,0.626
		c0.09,0.132,0.253,0.18,0.403,0.132c0.043-0.017,0.091-0.049,0.13-0.076L12.953,42.544z"/>
	<path fill="#FFFFFF" d="M13.465,44.678c-0.088-0.043-0.233-0.145-0.367-0.306c-0.33-0.394-0.293-0.864,0.099-1.194
		c0.379-0.32,0.89-0.305,1.262,0.14c0.1,0.115,0.174,0.253,0.204,0.356l-0.289,0.144c-0.018-0.075-0.058-0.168-0.155-0.283
		c-0.202-0.243-0.504-0.238-0.732-0.041c-0.259,0.214-0.267,0.513-0.082,0.727c0.09,0.11,0.181,0.17,0.259,0.213L13.465,44.678z"/>
	<path fill="#FFFFFF" d="M15.331,43.226l0.292,0.298l-0.698,0.692l0.004,0.003c0.092-0.02,0.187-0.011,0.279,0.014
		c0.093,0.028,0.18,0.08,0.256,0.152c0.197,0.205,0.274,0.544-0.107,0.916l-0.692,0.684l-0.294-0.294l0.66-0.658
		c0.173-0.164,0.24-0.356,0.079-0.521c-0.116-0.118-0.274-0.122-0.395-0.068c-0.038,0.017-0.072,0.044-0.103,0.079l-0.707,0.695
		l-0.293-0.296L15.331,43.226z"/>
	<path fill="#FFFFFF" d="M16.42,46.861c-0.129,0.152-0.23,0.278-0.312,0.389l-0.277-0.237l0.147-0.204l-0.009-0.002
		c-0.129,0.038-0.364,0.063-0.588-0.13c-0.227-0.191-0.32-0.51,0.03-0.915l0.628-0.74l0.316,0.273l-0.582,0.681
		c-0.178,0.208-0.225,0.401-0.056,0.545c0.128,0.111,0.284,0.09,0.385,0.037c0.036-0.018,0.071-0.047,0.1-0.084l0.648-0.756
		l0.318,0.27L16.42,46.861z"/>
	<path fill="#FFFFFF" d="M17.129,46.576c0.11-0.152,0.197-0.29,0.274-0.409l0.295,0.209l-0.127,0.215l0.01,0.009
		c0.135-0.069,0.372-0.089,0.596,0.07c0.236,0.168,0.374,0.491,0.071,0.916l-0.569,0.8l-0.339-0.239l0.539-0.764
		c0.136-0.193,0.168-0.39-0.018-0.523c-0.134-0.097-0.297-0.066-0.405,0.013c-0.033,0.019-0.066,0.059-0.093,0.099L16.8,47.764
		l-0.344-0.24L17.129,46.576z"/>
	<path fill="#FFFFFF" d="M19.269,48.593l-0.483,0.474l-0.381-0.206l1.738-1.657l0.47,0.253l-0.438,2.364l-0.397-0.212l0.127-0.671
		L19.269,48.593z M19.993,48.626l0.113-0.582c0.028-0.145,0.071-0.297,0.104-0.428l-0.008-0.003
		c-0.093,0.099-0.202,0.221-0.302,0.322l-0.422,0.412L19.993,48.626z"/>
	<path fill="#FFFFFF" d="M21.973,50.072c-0.081,0.178-0.14,0.33-0.186,0.459l-0.336-0.149l0.083-0.236l-0.01-0.003
		c-0.112,0.078-0.329,0.165-0.604,0.045c-0.273-0.119-0.453-0.399-0.233-0.889l0.395-0.893l0.378,0.168l-0.36,0.829
		c-0.115,0.251-0.104,0.447,0.1,0.537c0.152,0.07,0.301,0.007,0.382-0.076c0.028-0.023,0.054-0.065,0.072-0.107l0.407-0.915
		l0.382,0.168L21.973,50.072z"/>
	<path fill="#FFFFFF" d="M23.269,48.85l-0.138,0.397l0.372,0.135l-0.106,0.295l-0.371-0.135l-0.244,0.687
		c-0.068,0.192-0.052,0.307,0.1,0.36c0.07,0.026,0.11,0.033,0.158,0.042l-0.098,0.296c-0.066,0-0.178-0.014-0.302-0.057
		c-0.144-0.055-0.244-0.143-0.292-0.248c-0.054-0.122-0.041-0.28,0.031-0.482l0.259-0.734l-0.222-0.076l0.106-0.296l0.219,0.079
		l0.102-0.29L23.269,48.85z"/>
	<path fill="#FFFFFF" d="M24.911,50.632c-0.165,0.581-0.65,0.73-1.056,0.616c-0.446-0.126-0.71-0.529-0.567-1.043
		c0.147-0.527,0.584-0.749,1.059-0.612C24.822,49.728,25.046,50.151,24.911,50.632 M23.708,50.311c-0.088,0.31,0,0.582,0.243,0.647
		c0.228,0.067,0.452-0.11,0.541-0.435c0.069-0.244,0.037-0.566-0.235-0.641C23.972,49.803,23.782,50.048,23.708,50.311"/>
	<path fill="#FFFFFF" d="M25.248,50.405c0.032-0.184,0.05-0.345,0.067-0.486l0.354,0.059l-0.023,0.242h0.01
		c0.098-0.113,0.271-0.239,0.549-0.194c0.214,0.036,0.362,0.186,0.402,0.378h0.008c0.071-0.079,0.149-0.137,0.23-0.172
		c0.106-0.047,0.213-0.064,0.349-0.037c0.27,0.042,0.512,0.272,0.426,0.795l-0.158,0.959l-0.402-0.066l0.148-0.902
		c0.045-0.271-0.02-0.444-0.219-0.478c-0.142-0.024-0.262,0.059-0.327,0.168c-0.017,0.035-0.033,0.087-0.042,0.134l-0.162,0.977
		l-0.402-0.064l0.159-0.945c0.036-0.226-0.028-0.402-0.22-0.435c-0.151-0.027-0.275,0.08-0.333,0.181
		c-0.021,0.044-0.037,0.088-0.044,0.133l-0.161,0.965L25.06,51.55L25.248,50.405z"/>
	<path fill="#FFFFFF" d="M29.533,51.218c-0.033,0.604-0.475,0.853-0.897,0.832c-0.463-0.025-0.81-0.366-0.779-0.895
		c0.026-0.545,0.398-0.855,0.901-0.832C29.247,50.352,29.56,50.715,29.533,51.218 M28.284,51.166
		c-0.017,0.319,0.132,0.568,0.38,0.58c0.24,0.016,0.418-0.207,0.436-0.541c0.015-0.258-0.084-0.564-0.371-0.58
		C28.435,50.609,28.303,50.893,28.284,51.166"/>
	<path fill="#FFFFFF" d="M29.739,49.654l0.415-0.016l0.036,0.984h0.005c0.095-0.161,0.273-0.273,0.519-0.283
		c0.406-0.016,0.704,0.311,0.72,0.811c0.02,0.593-0.345,0.903-0.72,0.915c-0.212,0.005-0.405-0.068-0.532-0.267h-0.005l-0.011,0.247
		l-0.359,0.015c0.006-0.113,0.006-0.294,0-0.461L29.739,49.654z M30.218,51.362c0,0.036,0.005,0.071,0.014,0.099
		c0.049,0.167,0.198,0.285,0.38,0.278c0.26-0.009,0.413-0.22,0.399-0.558c-0.009-0.288-0.158-0.521-0.435-0.514
		c-0.17,0.01-0.322,0.134-0.359,0.319c-0.007,0.032-0.012,0.07-0.007,0.108L30.218,51.362z"/>
	<path fill="#FFFFFF" d="M31.986,49.813c0.013,0.122-0.07,0.231-0.217,0.247c-0.138,0.012-0.24-0.081-0.249-0.204
		c-0.013-0.126,0.071-0.235,0.211-0.247C31.872,49.594,31.969,49.684,31.986,49.813 M31.747,51.962l-0.158-1.648l0.417-0.036
		l0.16,1.646L31.747,51.962z"/>
	
		<rect x="32.316" y="49.454" transform="matrix(-0.991 0.134 -0.134 -0.991 71.5463 96.5085)" fill="#FFFFFF" width="0.417" height="2.417"/>
	<path fill="#FFFFFF" d="M33.451,51.029c0.065,0.29,0.314,0.375,0.578,0.329c0.192-0.038,0.318-0.094,0.438-0.16l0.113,0.27
		c-0.131,0.082-0.314,0.164-0.551,0.213c-0.527,0.097-0.897-0.17-0.991-0.668c-0.084-0.449,0.11-0.925,0.629-1.022
		c0.53-0.099,0.786,0.301,0.852,0.659c0.013,0.073,0.019,0.136,0.019,0.174L33.451,51.029z M34.111,50.607
		c-0.026-0.151-0.137-0.386-0.412-0.334c-0.254,0.049-0.318,0.297-0.303,0.469L34.111,50.607z"/>
	
		<rect x="34.29" y="49.933" transform="matrix(-0.2662 -0.9639 0.9639 -0.2662 -3.4662 97.6394)" fill="#FFFFFF" width="2.286" height="0.413"/>
	<path fill="#FFFFFF" d="M35.941,49.982c-0.062-0.18-0.121-0.326-0.174-0.463l0.341-0.117l0.103,0.227l0.009-0.004
		c0.028-0.144,0.146-0.353,0.407-0.442c0.272-0.092,0.618-0.016,0.787,0.476l0.322,0.93l-0.394,0.134l-0.308-0.877
		c-0.077-0.228-0.22-0.369-0.437-0.29c-0.157,0.05-0.226,0.203-0.226,0.338c-0.003,0.034,0.009,0.087,0.023,0.129l0.321,0.92
		l-0.396,0.139L35.941,49.982z"/>
	<path fill="#FFFFFF" d="M38.552,47.609l0.794,1.778c0.071,0.152,0.149,0.32,0.201,0.419l-0.338,0.149l-0.124-0.227h-0.007
		c-0.014,0.207-0.152,0.396-0.367,0.493c-0.363,0.161-0.786-0.015-0.994-0.481c-0.23-0.506-0.046-0.946,0.317-1.111
		c0.208-0.093,0.394-0.074,0.511,0.009l0.004-0.009l-0.382-0.851L38.552,47.609z M38.759,49.101
		c-0.014-0.034-0.036-0.07-0.056-0.099c-0.095-0.129-0.274-0.196-0.448-0.118c-0.242,0.106-0.282,0.388-0.157,0.667
		c0.124,0.279,0.351,0.419,0.591,0.311c0.156-0.072,0.246-0.237,0.21-0.418c-0.008-0.038-0.021-0.078-0.04-0.115L38.759,49.101z"/>
	<path fill="#FFFFFF" d="M40.959,48.473c0.094,0.171,0.18,0.307,0.252,0.428l-0.319,0.175l-0.137-0.207l-0.009,0.009
		c-0.006,0.131-0.067,0.36-0.328,0.504c-0.26,0.145-0.589,0.123-0.852-0.349l-0.471-0.849l0.366-0.205l0.436,0.787
		c0.133,0.243,0.297,0.35,0.49,0.249c0.149-0.082,0.188-0.24,0.172-0.352c-0.003-0.036-0.02-0.089-0.044-0.127l-0.484-0.87
		l0.365-0.205L40.959,48.473z"/>
	<path fill="#FFFFFF" d="M41.333,48.359c0.111,0,0.297-0.048,0.421-0.132c0.154-0.101,0.178-0.209,0.117-0.299
		c-0.061-0.093-0.146-0.102-0.359-0.053c-0.329,0.088-0.537,0.013-0.647-0.157c-0.161-0.239-0.084-0.559,0.239-0.771
		c0.153-0.103,0.31-0.153,0.423-0.161l0.091,0.29c-0.079,0.002-0.224,0.032-0.346,0.113c-0.125,0.083-0.153,0.193-0.098,0.274
		c0.061,0.091,0.151,0.085,0.371,0.037c0.31-0.08,0.509-0.029,0.645,0.171c0.169,0.255,0.093,0.564-0.275,0.808
		c-0.164,0.11-0.344,0.172-0.482,0.182L41.333,48.359z"/>
	<path fill="#FFFFFF" d="M41.828,45.975l0.252,0.338l0.318-0.23l0.184,0.25l-0.316,0.236l0.432,0.584
		c0.122,0.164,0.227,0.216,0.353,0.122c0.06-0.042,0.091-0.07,0.119-0.114l0.193,0.25c-0.034,0.055-0.112,0.14-0.215,0.216
		c-0.128,0.093-0.258,0.127-0.37,0.103c-0.133-0.021-0.255-0.119-0.385-0.29l-0.458-0.629l-0.189,0.139l-0.184-0.252l0.187-0.137
		l-0.183-0.251L41.828,45.975z"/>
	<path fill="#FFFFFF" d="M42.833,46.407c-0.141-0.172-0.251-0.294-0.347-0.4l0.277-0.227l0.211,0.227l0.004-0.005
		c-0.082-0.229-0.005-0.445,0.132-0.556c0.031-0.027,0.054-0.042,0.081-0.059l0.251,0.304c-0.035,0.013-0.065,0.04-0.104,0.07
		c-0.152,0.126-0.181,0.31-0.087,0.481c0.016,0.032,0.044,0.067,0.07,0.102l0.545,0.663l-0.323,0.267L42.833,46.407z"/>
	<path fill="#FFFFFF" d="M43.57,45.081l0.824,0.443c0.093,0.047,0.208,0.118,0.286,0.168l0.009-0.011
		c-0.046-0.082-0.109-0.192-0.156-0.29l-0.42-0.82l0.323-0.309l0.472,1.105c0.258,0.608,0.336,0.91,0.311,1.171
		c-0.02,0.215-0.107,0.371-0.174,0.449l-0.306-0.19c0.038-0.057,0.076-0.144,0.093-0.244c0.026-0.094,0.024-0.228-0.01-0.35
		c-0.01-0.036-0.02-0.06-0.034-0.071c-0.01-0.014-0.029-0.029-0.071-0.047l-1.481-0.686L43.57,45.081z"/>
	<polygon fill="#FFFFFF" points="44.675,43.054 46.377,44.583 46.095,44.893 44.392,43.363 	"/>
	<path fill="#FFFFFF" d="M45.75,43.54c-0.147-0.116-0.279-0.207-0.395-0.29l0.227-0.288l0.208,0.139l0.008-0.007
		c-0.057-0.138-0.069-0.38,0.101-0.596c0.181-0.224,0.513-0.341,0.925-0.019l0.77,0.605l-0.257,0.33l-0.733-0.581
		c-0.19-0.148-0.386-0.187-0.528-0.01c-0.1,0.133-0.08,0.294-0.007,0.408c0.018,0.035,0.053,0.07,0.089,0.102l0.767,0.6
		l-0.258,0.329L45.75,43.54z"/>
	<path fill="#FFFFFF" d="M47.492,42.554c0.101-0.044,0.255-0.157,0.34-0.28c0.101-0.152,0.083-0.263-0.008-0.326
		c-0.091-0.061-0.174-0.038-0.352,0.091c-0.269,0.203-0.488,0.215-0.653,0.105c-0.241-0.164-0.292-0.49-0.077-0.808
		c0.102-0.152,0.229-0.256,0.329-0.309l0.195,0.235c-0.072,0.032-0.193,0.115-0.276,0.235c-0.082,0.123-0.066,0.238,0.02,0.292
		c0.085,0.058,0.168,0.019,0.349-0.112c0.257-0.192,0.461-0.218,0.667-0.081c0.252,0.169,0.3,0.487,0.051,0.845
		c-0.111,0.167-0.251,0.287-0.375,0.354L47.492,42.554z"/>
	<path fill="#FFFFFF" d="M47.012,40.176l0.366,0.22l0.203-0.341l0.267,0.159l-0.204,0.343l0.628,0.371
		c0.176,0.106,0.288,0.111,0.375-0.026c0.034-0.063,0.054-0.098,0.067-0.146l0.274,0.153c-0.009,0.067-0.051,0.172-0.117,0.283
		c-0.081,0.136-0.19,0.215-0.302,0.239c-0.129,0.032-0.283-0.012-0.466-0.125l-0.669-0.397l-0.118,0.201l-0.27-0.16l0.12-0.202
		l-0.265-0.16L47.012,40.176z"/>
	<path fill="#FFFFFF" d="M47.456,39.304c0.107,0.058,0.155,0.187,0.082,0.311c-0.066,0.127-0.197,0.158-0.305,0.1
		c-0.114-0.064-0.155-0.194-0.089-0.318C47.211,39.275,47.34,39.243,47.456,39.304 M49.102,40.706l-1.453-0.791l0.199-0.369
		l1.455,0.789L49.102,40.706z"/>
	<path fill="#FFFFFF" d="M47.818,38.673l0.378,0.191l0.174-0.357l0.283,0.134l-0.174,0.359l0.656,0.315
		c0.18,0.091,0.298,0.084,0.368-0.056c0.031-0.07,0.046-0.106,0.053-0.157l0.288,0.134c-0.006,0.063-0.036,0.173-0.091,0.292
		c-0.068,0.14-0.17,0.226-0.279,0.261c-0.128,0.041-0.282,0.014-0.476-0.084l-0.698-0.339l-0.102,0.213l-0.281-0.137l0.102-0.207
		l-0.276-0.137L47.818,38.673z"/>
	<path fill="#FFFFFF" d="M50.075,37.412c0.184,0.076,0.337,0.13,0.465,0.174l-0.136,0.337l-0.236-0.076l-0.004,0.013
		c0.079,0.104,0.174,0.326,0.063,0.598c-0.113,0.279-0.384,0.467-0.885,0.26l-0.903-0.364l0.16-0.39l0.834,0.341
		c0.256,0.103,0.451,0.091,0.537-0.117c0.064-0.156-0.004-0.301-0.089-0.379c-0.026-0.027-0.066-0.05-0.11-0.07l-0.925-0.377
		l0.156-0.388L50.075,37.412z"/>
	<path fill="#FFFFFF" d="M48.828,36.142l0.403,0.134l0.126-0.377l0.295,0.096l-0.123,0.378l0.694,0.226
		c0.191,0.068,0.304,0.048,0.355-0.106c0.024-0.069,0.031-0.108,0.033-0.16l0.304,0.096c0.003,0.061-0.012,0.174-0.052,0.297
		c-0.049,0.147-0.138,0.255-0.243,0.3c-0.118,0.059-0.278,0.047-0.482-0.02l-0.74-0.246l-0.074,0.222l-0.298-0.098l0.076-0.219
		l-0.293-0.099L48.828,36.142z"/>
	<path fill="#FFFFFF" d="M50.384,35.724c0.293,0.066,0.479-0.123,0.546-0.386c0.048-0.184,0.055-0.326,0.043-0.457l0.293,0.01
		c0.025,0.153,0.017,0.358-0.047,0.584c-0.135,0.521-0.533,0.742-1.025,0.613c-0.442-0.115-0.79-0.499-0.653-1.007
		c0.136-0.522,0.608-0.58,0.961-0.487c0.075,0.02,0.132,0.043,0.169,0.059L50.384,35.724z M50.291,34.946
		c-0.151-0.044-0.411-0.044-0.481,0.227c-0.066,0.251,0.132,0.415,0.292,0.475L50.291,34.946z"/>
	<path fill="#FFFFFF" d="M72.816,22.987v-3.169h3.273v-9.713h3.474v9.713h16.664v3.169h-9.201c1.841,3.273,5.077,5.588,9.713,6.95
		c-0.818,0.82-1.672,1.874-2.556,3.17c-5.045-2.048-8.554-5.417-10.53-10.12h-4.09v6.747c0.68-0.205,1.671-0.545,2.966-1.025
		c1.431-0.472,2.521-0.817,3.272-1.019v1.124c-0.069,0.889-0.069,1.567,0,2.044c-2.728,0.68-4.841,1.329-6.339,1.942
		c-0.818,0.34-1.637,0.749-2.454,1.225l-1.841-2.861c0.614-0.614,0.922-1.568,0.922-2.861v-5.316H72.816z M91.626,10.206
		l2.557,3.069c-3.408,1.975-7.053,3.783-10.94,5.415l-2.045-2.554C85.628,14.092,89.104,12.116,91.626,10.206"/>
	<path fill="#FFFFFF" d="M104.835,33.927h-3.17v-7.465c-0.751,0.477-1.534,0.987-2.35,1.535c-0.751-1.228-1.433-2.148-2.045-2.762
		c2.248-1.022,4.122-2.28,5.623-3.782h-5.317v-2.456h7.26c0.066-0.133,0.168-0.306,0.306-0.509c0.204-0.271,0.34-0.51,0.408-0.716
		h-6.134v-2.35h7.157c0-0.069,0.033-0.206,0.102-0.409c0.067-0.412,0.136-0.679,0.205-0.817h-8.281v-2.455h8.895
		c0-0.34,0.067-0.853,0.205-1.536c-0.137,0.413-0.137,0.343,0-0.202h3.271c0,0.202-0.035,0.477-0.102,0.817
		c-0.068,0.412-0.137,0.719-0.203,0.921h9.608v2.455h-10.12c-0.07,0.138-0.139,0.404-0.206,0.817
		c-0.068,0.203-0.101,0.34-0.101,0.409h9.609v2.35h-10.327c-0.204,0.409-0.407,0.82-0.613,1.224h12.779v2.456h-5.929
		c1.634,1.636,3.713,2.76,6.235,3.374c-0.408,0.682-0.886,1.466-1.432,2.35c-0.138,0.272-0.239,0.48-0.306,0.613
		c-0.954-0.341-1.839-0.781-2.658-1.327v7.465h-3.272v-1.025h-9.097V33.927z M113.933,25.441h-9.097v1.531h9.097V25.441z
		 M104.835,30.757h9.097v-1.535h-9.097V30.757z M112.093,21.453h-5.214c-0.137,0.274-0.444,0.682-0.92,1.228
		c-0.137,0.203-0.239,0.339-0.305,0.408h7.564C112.808,22.612,112.434,22.067,112.093,21.453"/>
	<path fill="#FFFFFF" d="M122.134,18.899l2.145-2.253c1.566,1.025,2.999,2.117,4.293,3.272l-2.247,2.556
		c-0.071-0.068-0.139-0.134-0.207-0.205C125.163,21.387,123.834,20.26,122.134,18.899 M125.507,23.19
		c0.885,0.411,1.975,0.817,3.271,1.228c-1.023,2.932-2.045,5.963-3.066,9.098c-1.16-0.409-2.251-0.784-3.272-1.124
		C123.801,28.983,124.824,25.916,125.507,23.19 M122.541,12.355l2.044-2.249c1.84,1.224,3.305,2.317,4.396,3.271l-2.145,2.558
		C125.539,14.706,124.108,13.515,122.541,12.355 M132.049,10.105h3.475c-0.069,0.206-0.205,0.545-0.408,1.022
		c-0.206,0.412-0.376,0.752-0.512,1.022h10.837v2.864h-12.166c-0.272,0.477-0.579,0.987-0.919,1.536h11.859v2.756h-12.165v-2.247
		c-0.682,1.091-1.432,2.181-2.25,3.273c-0.682-1.432-1.329-2.659-1.942-3.684C129.698,14.399,131.094,12.219,132.049,10.105
		 M139.818,23.7h-10.12v-2.861h13.597v4.089c0,2.249,0.066,3.782,0.204,4.602c0.066,0.408,0.238,0.649,0.511,0.715
		c0.206,0,0.341-0.373,0.41-1.124c0.067-0.274,0.101-0.718,0.101-1.329c0.067-0.615,0.104-1.056,0.104-1.33
		c0.614,0.408,1.227,0.817,1.839,1.228c-0.068,1.77-0.306,3.204-0.715,4.291c-0.41,1.365-1.09,2.044-2.047,2.044
		c-1.43,0-2.453-0.713-3.065-2.146c-0.545-1.159-0.818-3.337-0.818-6.54V23.7z"/>
	<path fill="#FFFFFF" d="M147.404,29.529v-3.067h10.938v-2.554h-8.69v-2.762c1.024-1.769,1.943-3.543,2.761-5.316h-4.396v-2.965
		h5.826c0.137-0.34,0.341-0.851,0.614-1.536c0.27-0.609,0.477-1.087,0.614-1.429l3.577,0.513c-0.341,0.82-0.715,1.635-1.125,2.452
		h12.473v2.965h-13.902c-0.273,0.548-0.683,1.366-1.227,2.455c-0.614,1.156-1.092,2.045-1.431,2.659h4.906v-3.887h3.374v3.887h6.951
		v2.964h-6.951v2.554h9.201v3.067h-9.201v4.398h-3.374v-4.398H147.404z"/>
	<polygon fill="#FFFFFF" points="172.164,32.493 172.164,29.323 181.979,29.323 181.979,15.321 173.493,15.321 173.493,11.842 
		194.656,11.842 194.656,15.321 185.965,15.321 185.965,29.323 195.881,29.323 195.881,32.493 	"/>
	<path fill="#FFFFFF" d="M203.775,23.294V10.513h3.576v19.118h3.066V10.513h3.478v13.088c1.362-2.592,2.657-5.623,3.885-9.1
		l3.167,1.329c-0.68,1.704-1.874,4.468-3.578,8.283c-0.339,0.815-0.614,1.429-0.817,1.841l-2.657-1.229v4.906h7.052v3.068h-24.024
		v-3.068h6.851v-4.804l-2.762,1.127c-1.294-3.819-2.624-7.296-3.988-10.431l2.967-1.325c0.204,0.541,0.544,1.398,1.022,2.553
		C201.694,18.25,202.614,20.431,203.775,23.294"/>
	<path fill="#FFFFFF" d="M221.787,14.399v-2.557h10.12c-0.204-0.545-0.408-1.022-0.612-1.429l3.885-0.614
		c0.066,0.205,0.168,0.513,0.307,0.921c0.203,0.545,0.373,0.916,0.511,1.122h9.711v2.557H221.787z M223.012,33.719V21.862h21.676
		v8.075c0,2.113-0.921,3.336-2.762,3.683c-0.544,0.066-2.043,0.099-4.499,0.099c-0.067-1.019-0.272-1.907-0.612-2.659
		c0.954,0.072,1.943,0.105,2.965,0.105c1.088,0,1.635-0.509,1.635-1.535v-5.316h-15.233v9.405H223.012z M242.336,20.839h-17.071
		v-5.417h17.071V20.839z M231.192,31.472h-2.862V25.34h10.94v5.518h-8.078V31.472z M228.535,18.691h10.53v-1.227h-10.53V18.691z
		 M231.192,28.814h5.113v-1.33h-5.113V28.814z"/>
	<path fill="#FFFFFF" d="M247.47,28.2v-2.553h14.516v-1.333h-15.334V21.76h10.223v-1.534h-8.487v-2.555h8.487v-1.736h2.965
		c-0.411-0.339-0.853-0.647-1.329-0.922c0.204-0.205,0.375-0.444,0.511-0.718h-4.499c0.614,0.751,1.127,1.333,1.535,1.741
		l-2.351,1.531c-0.272-0.409-0.886-1.189-1.84-2.351l1.125-0.921h-1.942c-0.752,1.026-1.536,1.979-2.353,2.863
		c-0.614-0.748-1.364-1.466-2.247-2.145c1.565-1.568,2.861-3.239,3.885-5.009h3.575c-0.136,0.203-0.339,0.545-0.614,1.023
		c-0.272,0.408-0.475,0.748-0.611,1.022h6.542v2.044c0.953-1.365,1.737-2.724,2.351-4.089h3.784c-0.07,0.203-0.24,0.545-0.513,1.023
		c-0.203,0.408-0.375,0.748-0.511,1.022h6.033v2.247h-3.887c0.207,0.206,0.476,0.48,0.818,0.82c0.342,0.408,0.579,0.715,0.715,0.921
		l-2.247,1.531c-0.479-0.543-1.092-1.293-1.842-2.246c-0.136-0.138-0.24-0.242-0.306-0.308l0.92-0.718h-1.636
		c-0.614,0.888-1.225,1.704-1.84,2.455c-0.203-0.137-0.511-0.34-0.92-0.614v1.535h8.791v2.555h-8.791v1.534h10.53v2.554h-5.315
		v1.333h4.396V28.2h-4.396v2.557c0,1.908-0.922,2.863-2.761,2.863c-1.09,0.066-2.658,0.099-4.703,0.099
		c-0.067-0.406-0.204-1.092-0.408-2.044c-0.071-0.477-0.138-0.85-0.206-1.124h1.532c0.75,0.068,1.331,0.105,1.741,0.105
		c0.954,0,1.43-0.513,1.43-1.536V28.2h-7.156c0.614,0.818,1.19,1.604,1.737,2.351l-2.862,1.737c-0.886-1.229-1.808-2.586-2.76-4.089
		H247.47z"/>
	<path fill="#FFFFFF" d="M278.772,22.576h14.62v3.07c-1.838,1.497-3.75,2.964-5.726,4.396c1.16,0.408,2.25,0.783,3.273,1.122
		l-1.945,3.067c-1.224-0.478-2.961-1.16-5.213-2.045c-4.227-1.637-7.294-2.863-9.201-3.68l1.638-2.658
		c1.224,0.412,3.064,1.059,5.52,1.942c1.088,0.409,1.907,0.716,2.453,0.919c0.476-0.34,1.157-0.881,2.045-1.633
		c0.954-0.68,1.635-1.191,2.044-1.535h-13.393v-2.554l0.82-2.249h-4.091v-3.171h5.419l0.612-1.838h-4.496v-3.171h5.825L280,10.003
		h3.782l-1.021,2.554h11.142v3.171h-12.472l-0.715,1.838h14.722v3.171h-15.951L278.772,22.576z"/>
	<path fill="#FFFFFF" d="M296.172,26.357c1.567-1.837,2.76-3.883,3.577-6.131h-3.271v-3.169h3.475v-2.658
		c-0.34,0-0.817,0.033-1.429,0.102c-0.682,0-1.195,0.035-1.536,0.101c-0.203-1.087-0.407-2.044-0.612-2.861
		c3.337-0.271,6.439-0.614,9.303-1.022l0.92,2.864c-0.409,0.065-1.024,0.17-1.842,0.306c-0.681,0.066-1.226,0.138-1.636,0.203v2.965
		h3.17v3.169h-3.17v2.043l1.125-1.018c1.225,1.018,2.214,1.939,2.967,2.756l-2.048,1.947c-0.34-0.412-0.784-0.921-1.329-1.536
		c-0.34-0.411-0.579-0.679-0.715-0.817v10.222h-3.169v-7.975c-0.75,1.568-1.635,3.034-2.657,4.396
		C297.093,29.222,296.715,27.929,296.172,26.357 M305.987,28.709l-0.41-3.063l7.872-0.719V10.105h3.478v14.516l3.269-0.308
		l0.307,3.069l-3.576,0.307v6.133h-3.478v-5.826L305.987,28.709z M306.294,20.124l2.044-2.146c1.431,1.092,2.827,2.248,4.191,3.475
		l-2.353,2.247C309.155,22.474,307.862,21.283,306.294,20.124 M307.112,13.889l2.043-2.048c1.297,0.886,2.659,2.013,4.091,3.374
		l-2.249,2.25C309.837,16.173,308.541,14.981,307.112,13.889"/>
	<path fill="#FFFFFF" d="M321.443,27.791v-2.964h10.635v-0.614l3.268-2.146h-8.892v-2.965h13.697v2.965l-4.191,2.76h8.996v2.964
		h-9.407v2.558c0,2.109-1.122,3.2-3.371,3.271c-1.57,0.066-3.035,0.099-4.396,0.099c-0.204-1.156-0.478-2.181-0.818-3.063
		c1.225,0.065,2.351,0.101,3.372,0.101c1.157,0,1.741-0.478,1.741-1.434v-1.532H321.443z M323.692,11.741l2.556-1.737
		c1.024,1.091,2.046,2.318,3.068,3.679l-1.125,0.717h4.09c-0.274-0.477-0.683-1.159-1.227-2.044
		c-0.343-0.546-0.582-0.954-0.717-1.228l2.967-1.327c0.203,0.273,0.511,0.786,0.918,1.529c0.614,0.958,1.092,1.706,1.432,2.254
		l-1.737,0.817h2.965c0.614-0.817,1.397-1.976,2.351-3.474c0.205-0.34,0.375-0.582,0.51-0.719l3.273,1.842
		c-0.204,0.274-0.51,0.647-0.92,1.124c-0.478,0.549-0.818,0.954-1.023,1.228h3.475v6.032h-3.372v-3.067h-15.949v3.067h-3.374v-6.032
		h3.986C325.157,13.445,324.442,12.558,323.692,11.741"/>
	<path fill="#FFFFFF" d="M345.897,23.908c1.228-2.048,2.18-4.193,2.863-6.443h-2.659v-3.171h2.863v-4.188h3.066v4.188h2.351v3.171
		h-2.351v1.127c0.27,0.203,0.68,0.543,1.228,1.019c0.543,0.412,0.954,0.751,1.225,1.026c1.636-1.092,3.17-2.352,4.599-3.786
		l2.249,1.944c-1.431,1.568-3.167,3.066-5.213,4.5c-0.409-0.411-0.75-0.82-1.021-1.228l-1.635,1.94
		c-0.205-0.267-0.511-0.68-0.922-1.226c-0.203-0.205-0.377-0.375-0.511-0.512v11.553h-3.066V23.804
		c-0.614,1.503-1.366,3.033-2.249,4.598c-0.071-0.543-0.207-1.295-0.409-2.247C346.17,25.134,346.035,24.386,345.897,23.908
		 M357.042,23.088l2.861-1.329c0.614,1.43,1.396,2.691,2.353,3.782c0.817-1.228,1.532-2.488,2.146-3.782l2.966,1.123
		c-0.752,1.842-1.705,3.474-2.862,4.908c1.565,1.298,3.51,2.283,5.827,2.965c-0.818,1.088-1.499,2.113-2.045,3.067
		c-2.385-0.817-4.464-1.979-6.235-3.474c-1.842,1.429-4.023,2.657-6.544,3.677c-0.545-0.954-1.226-1.907-2.043-2.861
		c2.792-0.886,4.941-1.975,6.438-3.272C358.881,26.53,357.924,24.928,357.042,23.088 M355.1,16.442v-2.964h6.234
		c-0.614-1.023-1.157-1.874-1.635-2.554l3.171-1.025c0.545,0.82,1.157,1.874,1.838,3.17l-1.225,0.409h6.235v2.964H355.1z
		 M363.176,18.899l1.941-2.148c0.886,0.614,2.181,1.6,3.886,2.965c0.612,0.477,1.055,0.817,1.329,1.023l-1.942,2.556
		C366.275,21.387,364.537,19.918,363.176,18.899"/>
	<path fill="#FFFFFF" d="M79.739,49.818c-0.41,0.19-1.268,0.385-2.353,0.385c-2.51,0-4.387-1.44-4.387-4.103
		c0-2.542,1.891-4.243,4.651-4.243c1.098,0,1.81,0.215,2.114,0.36l-0.29,0.848c-0.422-0.188-1.044-0.333-1.783-0.333
		c-2.089,0-3.476,1.208-3.476,3.331c0,1.992,1.255,3.252,3.409,3.252c0.714,0,1.428-0.13,1.891-0.335L79.739,49.818z"/>
	<polygon fill="#FFFFFF" points="82.99,41.987 82.99,45.371 87.299,45.371 87.299,41.987 88.462,41.987 88.462,50.069 
		87.299,50.069 87.299,46.278 82.99,46.278 82.99,50.069 81.827,50.069 81.827,41.987 	"/>
	<path fill="#FFFFFF" d="M92.544,47.526l-0.925,2.543h-1.19l3.04-8.082h1.376l3.038,8.082h-1.23l-0.949-2.543H92.544z
		 M95.477,46.712l-0.886-2.328c-0.198-0.526-0.33-1.006-0.462-1.473h-0.028c-0.132,0.467-0.262,0.97-0.449,1.462l-0.872,2.339
		H95.477z"/>
	<path fill="#FFFFFF" d="M99.837,50.069v-8.082h1.268l2.842,4.089c0.648,0.947,1.176,1.799,1.587,2.625l0.038-0.012
		c-0.105-1.079-0.131-2.062-0.131-3.318v-3.384h1.083v8.082h-1.164l-2.827-4.102c-0.62-0.897-1.216-1.822-1.651-2.697l-0.041,0.009
		c0.067,1.023,0.079,1.993,0.079,3.339v3.451H99.837z"/>
	<path fill="#FFFFFF" d="M115.972,49.709c-0.514,0.18-1.546,0.442-2.747,0.442c-1.349,0-2.46-0.31-3.332-1.064
		c-0.766-0.673-1.241-1.751-1.241-3.011c0-2.41,1.837-4.173,4.824-4.173c1.03,0,1.85,0.205,2.232,0.372l-0.291,0.852
		c-0.475-0.205-1.068-0.349-1.969-0.349c-2.166,0-3.581,1.224-3.581,3.252c0,2.051,1.349,3.259,3.436,3.259
		c0.754,0,1.268-0.094,1.534-0.215v-2.41h-1.796v-0.839h2.932V49.709z"/>
	<path fill="#FFFFFF" d="M124.574,49.818c-0.41,0.19-1.268,0.385-2.352,0.385c-2.511,0-4.388-1.44-4.388-4.103
		c0-2.542,1.891-4.243,4.653-4.243c1.097,0,1.81,0.215,2.113,0.36l-0.289,0.848c-0.423-0.188-1.044-0.333-1.784-0.333
		c-2.089,0-3.476,1.208-3.476,3.331c0,1.992,1.256,3.252,3.408,3.252c0.714,0,1.428-0.13,1.891-0.335L124.574,49.818z"/>
	<polygon fill="#FFFFFF" points="127.825,41.987 127.825,45.371 132.134,45.371 132.134,41.987 133.297,41.987 133.297,50.069 
		132.134,50.069 132.134,46.278 127.825,46.278 127.825,50.069 126.662,50.069 126.662,41.987 	"/>
	<path fill="#FFFFFF" d="M137.088,41.987v4.798c0,1.799,0.887,2.563,2.076,2.563c1.308,0,2.166-0.789,2.166-2.563v-4.798h1.164
		v4.725c0,2.482-1.441,3.49-3.371,3.49c-1.823,0-3.198-0.936-3.198-3.455v-4.761H137.088z"/>
	<path fill="#FFFFFF" d="M145.134,50.069v-8.082h1.268l2.841,4.089c0.648,0.947,1.177,1.799,1.587,2.625l0.039-0.012
		c-0.105-1.079-0.132-2.062-0.132-3.318v-3.384h1.084v8.082h-1.164l-2.829-4.102c-0.619-0.897-1.215-1.822-1.65-2.697l-0.041,0.009
		c0.066,1.023,0.079,1.993,0.079,3.339v3.451H145.134z"/>
	<path fill="#FFFFFF" d="M159.372,47.526l-0.924,2.543h-1.191l3.041-8.082h1.375l3.038,8.082h-1.228l-0.952-2.543H159.372z
		 M162.306,46.712l-0.884-2.328c-0.2-0.526-0.33-1.006-0.463-1.473h-0.028c-0.131,0.467-0.262,0.97-0.449,1.462l-0.871,2.339
		H162.306z"/>
	<path fill="#FFFFFF" d="M167.817,41.987v4.798c0,1.799,0.887,2.563,2.076,2.563c1.308,0,2.166-0.789,2.166-2.563v-4.798h1.164
		v4.725c0,2.482-1.441,3.49-3.37,3.49c-1.824,0-3.199-0.936-3.199-3.455v-4.761H167.817z"/>
	<polygon fill="#FFFFFF" points="177.555,42.876 174.845,42.876 174.845,41.987 181.441,41.987 181.441,42.876 178.718,42.876 
		178.718,50.069 177.555,50.069 	"/>
	<path fill="#FFFFFF" d="M190.694,45.945c0,2.769-1.862,4.256-4.135,4.256c-2.366,0-4.005-1.667-4.005-4.113
		c0-2.567,1.746-4.245,4.124-4.245C189.122,41.843,190.694,43.535,190.694,45.945 M183.769,46.062c0,1.741,1.03,3.285,2.854,3.285
		c1.824,0,2.853-1.521,2.853-3.356c0-1.618-0.924-3.295-2.84-3.295C184.721,42.696,183.769,44.302,183.769,46.062"/>
	<path fill="#FFFFFF" d="M200.339,46.52c-0.065-1.127-0.146-2.495-0.146-3.488h-0.026c-0.317,0.934-0.674,1.953-1.122,3.069
		l-1.574,3.92H196.6l-1.454-3.847c-0.423-1.153-0.768-2.181-1.019-3.142h-0.026c-0.026,1.006-0.093,2.352-0.171,3.573l-0.239,3.464
		h-1.097l0.622-8.082h1.466l1.52,3.909c0.372,0.996,0.661,1.884,0.898,2.72h0.028c0.237-0.812,0.556-1.697,0.95-2.72l1.586-3.909
		h1.467l0.556,8.082h-1.138L200.339,46.52z"/>
	<path fill="#FFFFFF" d="M211.714,45.945c0,2.769-1.863,4.256-4.137,4.256c-2.365,0-4.005-1.667-4.005-4.113
		c0-2.567,1.746-4.245,4.126-4.245C210.143,41.843,211.714,43.535,211.714,45.945 M204.788,46.062c0,1.741,1.03,3.285,2.854,3.285
		c1.824,0,2.857-1.521,2.857-3.356c0-1.618-0.927-3.295-2.843-3.295C205.74,42.696,204.788,44.302,204.788,46.062"/>
	<path fill="#FFFFFF" d="M213.852,42.108c0.502-0.107,1.307-0.179,2.1-0.179c1.15,0,1.889,0.179,2.431,0.588
		c0.465,0.309,0.754,0.789,0.754,1.423c0,0.794-0.584,1.477-1.506,1.777v0.036c0.846,0.179,1.836,0.815,1.836,2.015
		c0,0.695-0.304,1.234-0.767,1.62c-0.607,0.515-1.612,0.753-3.065,0.753c-0.794,0-1.401-0.047-1.783-0.093V42.108z M215,45.416
		h1.046c1.201,0,1.914-0.588,1.914-1.365c0-0.934-0.779-1.32-1.943-1.32c-0.528,0-0.831,0.036-1.017,0.072V45.416z M215,49.275
		c0.239,0.04,0.555,0.053,0.964,0.053c1.191,0,2.287-0.399,2.287-1.574c0-1.091-1.042-1.558-2.299-1.558H215V49.275z"/>
	<rect x="221.65" y="41.987" fill="#FFFFFF" width="1.162" height="8.082"/>
	<polygon fill="#FFFFFF" points="225.464,41.987 226.626,41.987 226.626,49.194 230.432,49.194 230.432,50.069 225.464,50.069 	"/>
	<polygon fill="#FFFFFF" points="236.963,46.278 233.512,46.278 233.512,49.194 237.372,49.194 237.372,50.069 232.351,50.069 
		232.351,41.987 237.174,41.987 237.174,42.863 233.512,42.863 233.512,45.416 236.963,45.416 	"/>
	<rect x="242.959" y="41.987" fill="#FFFFFF" width="1.162" height="8.082"/>
	<path fill="#FFFFFF" d="M246.784,50.069v-8.082h1.269l2.841,4.089c0.646,0.947,1.177,1.799,1.587,2.625l0.039-0.012
		c-0.106-1.079-0.133-2.062-0.133-3.318v-3.384h1.085v8.082h-1.164l-2.829-4.102c-0.619-0.897-1.214-1.822-1.65-2.697l-0.042,0.009
		c0.067,1.023,0.081,1.993,0.081,3.339v3.451H246.784z"/>
	<path fill="#FFFFFF" d="M256.128,42.108c0.699-0.107,1.532-0.179,2.443-0.179c1.651,0,2.829,0.359,3.609,1.005
		c0.807,0.659,1.267,1.593,1.267,2.904c0,1.315-0.46,2.396-1.281,3.142c-0.845,0.754-2.22,1.162-3.952,1.162
		c-0.83,0-1.506-0.036-2.086-0.094V42.108z M257.276,49.256c0.292,0.033,0.715,0.046,1.164,0.046c2.47,0,3.793-1.247,3.793-3.429
		c0.014-1.907-1.177-3.119-3.608-3.119c-0.594,0-1.044,0.049-1.348,0.109V49.256z"/>
	<path fill="#FFFFFF" d="M266.723,41.987v4.798c0,1.799,0.886,2.563,2.075,2.563c1.309,0,2.167-0.789,2.167-2.563v-4.798h1.164
		v4.725c0,2.482-1.442,3.49-3.371,3.49c-1.823,0-3.199-0.936-3.199-3.455v-4.761H266.723z"/>
	<path fill="#FFFFFF" d="M274.624,48.8c0.517,0.3,1.256,0.528,2.05,0.528c1.175,0,1.863-0.566,1.863-1.381
		c0-0.741-0.477-1.186-1.679-1.597c-1.453-0.477-2.351-1.172-2.351-2.299c0-1.262,1.148-2.194,2.882-2.194
		c0.897,0,1.571,0.188,1.956,0.395l-0.318,0.853c-0.279-0.157-0.872-0.386-1.679-0.386c-1.215,0-1.677,0.66-1.677,1.212
		c0,0.754,0.541,1.127,1.769,1.557c1.509,0.529,2.26,1.189,2.26,2.379c0,1.243-1.004,2.337-3.104,2.337
		c-0.86,0-1.798-0.241-2.274-0.528L274.624,48.8z"/>
	<polygon fill="#FFFFFF" points="283.626,42.876 280.918,42.876 280.918,41.987 287.513,41.987 287.513,42.876 284.79,42.876 
		284.79,50.069 283.626,50.069 	"/>
	<path fill="#FFFFFF" d="M289.153,42.096c0.58-0.095,1.427-0.167,2.207-0.167c1.23,0,2.035,0.215,2.576,0.659
		c0.437,0.36,0.702,0.911,0.702,1.549c0,1.05-0.741,1.759-1.666,2.05v0.034c0.674,0.214,1.083,0.789,1.295,1.632
		c0.29,1.127,0.502,1.907,0.687,2.216h-1.189c-0.145-0.238-0.345-0.923-0.581-1.929c-0.265-1.117-0.754-1.535-1.797-1.572h-1.085
		v3.501h-1.148V42.096z M290.301,45.775h1.177c1.228,0,2.008-0.611,2.008-1.536c0-1.041-0.833-1.495-2.047-1.495
		c-0.557,0-0.938,0.033-1.138,0.081V45.775z"/>
	<path fill="#FFFFFF" d="M298.893,50.069V46.64l-2.829-4.653h1.322l1.256,2.231c0.331,0.611,0.607,1.104,0.886,1.668h0.027
		c0.24-0.528,0.555-1.058,0.899-1.668l1.279-2.231h1.299l-2.976,4.64v3.442H298.893z"/>
	<rect x="308.151" y="41.987" fill="#FFFFFF" width="1.162" height="8.082"/>
	<path fill="#FFFFFF" d="M311.979,50.069v-8.082h1.269l2.841,4.089c0.646,0.947,1.177,1.799,1.587,2.625l0.037-0.012
		c-0.104-1.079-0.131-2.062-0.131-3.318v-3.384h1.085v8.082h-1.164l-2.829-4.102c-0.619-0.897-1.217-1.822-1.65-2.697l-0.042,0.009
		c0.067,1.023,0.081,1.993,0.081,3.339v3.451H311.979z"/>
	<path fill="#FFFFFF" d="M321.175,48.8c0.515,0.3,1.254,0.528,2.048,0.528c1.177,0,1.863-0.566,1.863-1.381
		c0-0.741-0.475-1.186-1.679-1.597c-1.451-0.477-2.351-1.172-2.351-2.299c0-1.262,1.15-2.194,2.882-2.194
		c0.897,0,1.571,0.188,1.956,0.395l-0.318,0.853c-0.279-0.157-0.872-0.386-1.679-0.386c-1.214,0-1.677,0.66-1.677,1.212
		c0,0.754,0.541,1.127,1.771,1.557c1.507,0.529,2.259,1.189,2.259,2.379c0,1.243-1.005,2.337-3.105,2.337
		c-0.86,0-1.798-0.241-2.273-0.528L321.175,48.8z"/>
	<polygon fill="#FFFFFF" points="330.177,42.876 327.467,42.876 327.467,41.987 334.062,41.987 334.062,42.876 331.339,42.876 
		331.339,50.069 330.177,50.069 	"/>
	<rect x="335.688" y="41.987" fill="#FFFFFF" width="1.162" height="8.082"/>
	<polygon fill="#FFFFFF" points="341.206,42.876 338.499,42.876 338.499,41.987 345.093,41.987 345.093,42.876 342.371,42.876 
		342.371,50.069 341.206,50.069 	"/>
	<path fill="#FFFFFF" d="M347.882,41.987v4.798c0,1.799,0.888,2.563,2.077,2.563c1.307,0,2.165-0.789,2.165-2.563v-4.798h1.164
		v4.725c0,2.482-1.442,3.49-3.37,3.49c-1.824,0-3.198-0.936-3.198-3.455v-4.761H347.882z"/>
	<polygon fill="#FFFFFF" points="357.62,42.876 354.911,42.876 354.911,41.987 361.507,41.987 361.507,42.876 358.782,42.876 
		358.782,50.069 357.62,50.069 	"/>
	<polygon fill="#FFFFFF" points="367.747,46.278 364.296,46.278 364.296,49.194 368.156,49.194 368.156,50.069 363.134,50.069 
		363.134,41.987 367.958,41.987 367.958,42.863 364.296,42.863 364.296,45.416 367.747,45.416 	"/>
</g>
</svg>
